<mxfile host="www.draw.io" modified="2019-11-18T07:22:38.125Z" agent="Mozilla/5.0 (Windows NT 10.0; Win64; x64) AppleWebKit/537.36 (KHTML, like Gecko) Chrome/78.0.3904.97 Safari/537.36" etag="RWObpaLGfBxJF1ldHf0H" version="12.2.6" type="github" pages="1">
  <diagram id="C29vsQtd6jZAs602P4Rz" name="Page-1">
    <mxGraphModel dx="1026" dy="559" grid="1" gridSize="10" guides="1" tooltips="1" connect="1" arrows="1" fold="1" page="1" pageScale="1" pageWidth="850" pageHeight="1100" math="0" shadow="0">
      <root>
        <mxCell id="0"/>
        <mxCell id="1" parent="0"/>
        <mxCell id="2DimMKOM4YlCNLxA1_Jv-1" value="" style="rounded=0;whiteSpace=wrap;html=1;" vertex="1" parent="1">
          <mxGeometry x="160" y="80" width="120" height="60" as="geometry"/>
        </mxCell>
        <mxCell id="2DimMKOM4YlCNLxA1_Jv-2" value="12V" style="text;html=1;resizable=0;points=[];autosize=1;align=left;verticalAlign=top;spacingTop=-4;" vertex="1" parent="1">
          <mxGeometry x="69" y="109" width="40" height="20" as="geometry"/>
        </mxCell>
      </root>
    </mxGraphModel>
  </diagram>
</mxfile>
